<svg width="28" height="28" viewBox="0 0 28 28" fill="none" xmlns="http://www.w3.org/2000/svg">
<path d="M14 14C15.1603 14 16.2731 13.5391 17.0936 12.7186C17.9141 11.8981 18.375 10.7853 18.375 9.625C18.375 8.46468 17.9141 7.35188 17.0936 6.53141C16.2731 5.71094 15.1603 5.25 14 5.25C12.8397 5.25 11.7269 5.71094 10.9064 6.53141C10.0859 7.35188 9.625 8.46468 9.625 9.625C9.625 10.7853 10.0859 11.8981 10.9064 12.7186C11.7269 13.5391 12.8397 14 14 14ZM5.523 20.5852C5.803 19.4845 6.293 18.4678 6.94575 17.5753C5.99633 17.3937 5.01352 17.5316 4.15079 17.9676C3.28806 18.4036 2.594 19.113 2.177 19.985C1.939 20.4873 2.3555 21 2.9085 21H5.44425C5.46175 20.8647 5.488 20.7264 5.523 20.5852ZM22.4822 20.5852C22.5172 20.7252 22.5441 20.8635 22.5627 21H25.0932C25.6462 21 26.0627 20.4872 25.823 19.9867C25.4065 19.1154 24.7134 18.4063 23.8518 17.9701C22.9901 17.5339 22.0083 17.3951 21.0595 17.5753C21.714 18.4678 22.2022 19.4827 22.4822 20.5852ZM24.5 13.125C24.5 13.4697 24.4321 13.8111 24.3002 14.1295C24.1683 14.448 23.9749 14.7374 23.7312 14.9812C23.4874 15.2249 23.198 15.4183 22.8795 15.5502C22.5611 15.6821 22.2197 15.75 21.875 15.75C21.5303 15.75 21.1889 15.6821 20.8705 15.5502C20.552 15.4183 20.2626 15.2249 20.0188 14.9812C19.7751 14.7374 19.5817 14.448 19.4498 14.1295C19.3179 13.8111 19.25 13.4697 19.25 13.125C19.25 12.4288 19.5266 11.7611 20.0188 11.2688C20.5111 10.7766 21.1788 10.5 21.875 10.5C22.5712 10.5 23.2389 10.7766 23.7312 11.2688C24.2234 11.7611 24.5 12.4288 24.5 13.125ZM6.125 15.75C6.82119 15.75 7.48887 15.4734 7.98115 14.9812C8.47344 14.4889 8.75 13.8212 8.75 13.125C8.75 12.4288 8.47344 11.7611 7.98115 11.2688C7.48887 10.7766 6.82119 10.5 6.125 10.5C5.42881 10.5 4.76113 10.7766 4.26884 11.2688C3.77656 11.7611 3.5 12.4288 3.5 13.125C3.5 13.8212 3.77656 14.4889 4.26884 14.9812C4.76113 15.4734 5.42881 15.75 6.125 15.75ZM8.75 22.75C7.784 22.75 6.97725 21.9538 7.217 21.0175C7.60325 19.5117 8.47952 18.1772 9.70774 17.2243C10.936 16.2713 12.4463 15.7541 14.0009 15.7541C15.5554 15.7541 17.0658 16.2713 18.294 17.2243C19.5222 18.1772 20.3985 19.5117 20.7847 21.0175C21.0227 21.9538 20.2177 22.75 19.25 22.75H8.75Z" fill="white"/>
</svg>
