<svg width="28" height="28" viewBox="0 0 28 28" fill="none" xmlns="http://www.w3.org/2000/svg">
<path d="M14 25.6668C11.3361 25.6668 9.11477 24.7529 7.33599 22.9251C5.55721 21.0973 4.66743 18.8223 4.66666 16.1001C4.66666 14.8945 4.93888 13.689 5.48332 12.4834C6.02777 11.2779 6.70832 10.1209 7.52499 9.01259C8.34166 7.90426 9.22638 6.86398 10.1792 5.89176C11.1319 4.91954 12.0167 4.07371 12.8333 3.35426C12.9889 3.19871 13.1689 3.08709 13.3735 3.01943C13.578 2.95176 13.7869 2.91754 14 2.91676C14.2131 2.91598 14.4223 2.95021 14.6277 3.01943C14.833 3.08865 15.0127 3.20026 15.1667 3.35426C15.9833 4.07371 16.868 4.91954 17.8208 5.89176C18.7736 6.86398 19.6583 7.90426 20.475 9.01259C21.2917 10.1209 21.9722 11.2779 22.5167 12.4834C23.0611 13.689 23.3333 14.8945 23.3333 16.1001C23.3333 18.8223 22.4439 21.0973 20.6652 22.9251C18.8864 24.7529 16.6647 25.6668 14 25.6668ZM14.3208 22.1668C14.5542 22.1473 14.7537 22.0548 14.9193 21.8891C15.085 21.7234 15.1674 21.5243 15.1667 21.2918C15.1667 21.0195 15.0792 20.801 14.9042 20.6361C14.7292 20.4712 14.5055 20.3981 14.2333 20.4168C13.4361 20.4751 12.5903 20.2565 11.6958 19.7611C10.8014 19.2656 10.2375 18.3661 10.0042 17.0626C9.96527 16.8487 9.86338 16.6737 9.69849 16.5376C9.5336 16.4015 9.34382 16.3334 9.12916 16.3334C8.85693 16.3334 8.63332 16.4357 8.45832 16.6403C8.28332 16.8448 8.22499 17.0828 8.28332 17.3543C8.61388 19.1237 9.39166 20.3876 10.6167 21.1459C11.8417 21.9043 13.0764 22.2445 14.3208 22.1668Z" fill="white"/>
</svg>
