<svg width="28" height="28" viewBox="0 0 28 28" fill="none" xmlns="http://www.w3.org/2000/svg">
<path d="M24.8637 9.26406C24.7015 9.1007 24.5085 8.97115 24.2958 8.88291C24.0832 8.79467 23.8552 8.74949 23.625 8.75H20.125V7.875C20.125 6.25055 19.4797 4.69263 18.331 3.54397C17.1824 2.39531 15.6245 1.75 14 1.75C12.3755 1.75 10.8176 2.39531 9.66897 3.54397C8.52031 4.69263 7.875 6.25055 7.875 7.875V8.75H4.375C3.91087 8.75 3.46575 8.93437 3.13756 9.26256C2.80937 9.59075 2.625 10.0359 2.625 10.5V22.3125C2.625 24.4453 4.42969 26.25 6.5625 26.25H21.4375C22.4692 26.2503 23.46 25.847 24.1981 25.1262C24.5696 24.7718 24.8654 24.3458 25.0676 23.874C25.2699 23.4022 25.3745 22.8942 25.375 22.3809V10.5C25.3757 10.2704 25.3309 10.043 25.2431 9.83082C25.1553 9.61867 25.0264 9.42604 24.8637 9.26406ZM9.625 7.875C9.625 6.71468 10.0859 5.60188 10.9064 4.78141C11.7269 3.96094 12.8397 3.5 14 3.5C15.1603 3.5 16.2731 3.96094 17.0936 4.78141C17.9141 5.60188 18.375 6.71468 18.375 7.875V8.75H9.625V7.875Z" fill="white"/>
</svg>
