<svg width="28" height="28" viewBox="0 0 28 28" fill="none" xmlns="http://www.w3.org/2000/svg">
<path d="M5.83331 10.4999C5.83331 8.33398 6.69373 6.25676 8.22527 4.72521C9.75682 3.19367 11.834 2.33325 14 2.33325C16.1659 2.33325 18.2431 3.19367 19.7747 4.72521C21.3062 6.25676 22.1666 8.33398 22.1666 10.4999V11.7074C24.1453 11.9909 25.6666 13.6931 25.6666 15.7499V16.0416C25.6666 18.1124 23.8805 19.9278 21.7793 19.8309C20.916 22.3043 18.7203 23.9714 16.3508 24.3938C15.8025 24.5944 15.1538 24.4999 14.5833 24.4999C14.1192 24.4999 13.6741 24.3155 13.3459 23.9874C13.0177 23.6592 12.8333 23.214 12.8333 22.7499C12.8333 22.2858 13.0177 21.8407 13.3459 21.5125C13.6741 21.1843 14.1192 20.9999 14.5833 20.9999C15.5085 20.9999 16.5328 20.8658 17.1581 21.7104C18.6701 20.9906 19.8333 19.4704 19.8333 17.4999V10.4999C19.8333 8.95282 19.2187 7.46909 18.1248 6.37513C17.0308 5.28117 15.5471 4.66659 14 4.66659C12.4529 4.66659 10.9692 5.28117 9.87519 6.37513C8.78123 7.46909 8.16665 8.95282 8.16665 10.4999V17.7916C8.16665 18.3331 7.95154 18.8524 7.56866 19.2353C7.18577 19.6181 6.66646 19.8333 6.12498 19.8333C5.11937 19.8333 4.15494 19.4338 3.44387 18.7227C2.73279 18.0116 2.33331 17.0472 2.33331 16.0416V15.7499C2.33306 14.7678 2.68677 13.8186 3.32959 13.0761C3.97242 12.3336 4.8613 11.8477 5.83331 11.7074V10.4999Z" fill="white"/>
</svg>
