<svg width="36" height="36" viewBox="0 0 36 36" fill="none" xmlns="http://www.w3.org/2000/svg">
<path d="M17.9999 6.09521C24.3838 6.09521 29.7008 9.7098 33.8705 16.741L34.1978 17.305L34.2648 17.4538L34.3094 17.5774L34.3303 17.6592L34.3511 17.7812L34.3675 17.93V18.0937L34.3466 18.2589C34.3368 18.3142 34.3239 18.3688 34.308 18.4226L34.2499 18.5833L34.1963 18.6949L34.1725 18.7396C30.0594 25.936 24.7975 29.7217 18.4657 29.8988L17.9999 29.9047C11.4582 29.9047 6.04009 26.1116 1.8273 18.7381C1.69889 18.5133 1.63135 18.2589 1.63135 18C1.63135 17.7411 1.69889 17.4867 1.8273 17.2619C6.04009 9.88837 11.4582 6.09521 17.9999 6.09521ZM17.9999 13.5357C16.8159 13.5357 15.6804 14.006 14.8432 14.8432C14.006 15.6805 13.5356 16.816 13.5356 18C13.5356 19.184 14.006 20.3195 14.8432 21.1567C15.6804 21.9939 16.8159 22.4643 17.9999 22.4643C19.1839 22.4643 20.3194 21.9939 21.1566 21.1567C21.9939 20.3195 22.4642 19.184 22.4642 18C22.4642 16.816 21.9939 15.6805 21.1566 14.8432C20.3194 14.006 19.1839 13.5357 17.9999 13.5357Z" fill="white"/>
</svg>
