<svg width="28" height="28" viewBox="0 0 28 28" fill="none" xmlns="http://www.w3.org/2000/svg">
<path d="M17.5 4.66669C18.1189 4.66669 18.7124 4.91252 19.15 5.3501C19.5875 5.78769 19.8334 6.38118 19.8334 7.00002V8.16669H21.6067C21.9564 8.16673 22.3017 8.24539 22.6169 8.39685C22.9321 8.5483 23.2093 8.76868 23.4279 9.04169L25.1545 11.2012C25.486 11.615 25.6666 12.1293 25.6667 12.6595V17.5C25.6667 18.1189 25.4209 18.7124 24.9833 19.1499C24.5457 19.5875 23.9522 19.8334 23.3334 19.8334H22.1667C22.1667 20.7616 21.798 21.6518 21.1416 22.3082C20.4852 22.9646 19.595 23.3334 18.6667 23.3334C17.7385 23.3334 16.8482 22.9646 16.1918 22.3082C15.5355 21.6518 15.1667 20.7616 15.1667 19.8334H11.6667C11.6667 20.293 11.5762 20.7481 11.4003 21.1727C11.2244 21.5974 10.9666 21.9832 10.6416 22.3082C10.3166 22.6332 9.93074 22.891 9.5061 23.0669C9.08146 23.2428 8.62633 23.3334 8.16671 23.3334C7.70708 23.3334 7.25196 23.2428 6.82732 23.0669C6.40268 22.891 6.01684 22.6332 5.69183 22.3082C5.36683 21.9832 5.10902 21.5974 4.93313 21.1727C4.75724 20.7481 4.66671 20.293 4.66671 19.8334C4.04787 19.8334 3.45438 19.5875 3.01679 19.1499C2.57921 18.7124 2.33337 18.1189 2.33337 17.5V7.00002C2.33337 6.38118 2.57921 5.78769 3.01679 5.3501C3.45438 4.91252 4.04787 4.66669 4.66671 4.66669H17.5ZM8.16671 18.6667C7.85729 18.6667 7.56054 18.7896 7.34175 19.0084C7.12296 19.2272 7.00004 19.5239 7.00004 19.8334C7.00004 20.1428 7.12296 20.4395 7.34175 20.6583C7.56054 20.8771 7.85729 21 8.16671 21C8.47613 21 8.77287 20.8771 8.99167 20.6583C9.21046 20.4395 9.33337 20.1428 9.33337 19.8334C9.33337 19.5239 9.21046 19.2272 8.99167 19.0084C8.77287 18.7896 8.47613 18.6667 8.16671 18.6667ZM18.6667 18.6667C18.3573 18.6667 18.0605 18.7896 17.8418 19.0084C17.623 19.2272 17.5 19.5239 17.5 19.8334C17.5 20.1428 17.623 20.4395 17.8418 20.6583C18.0605 20.8771 18.3573 21 18.6667 21C18.9761 21 19.2729 20.8771 19.4917 20.6583C19.7105 20.4395 19.8334 20.1428 19.8334 19.8334C19.8334 19.5239 19.7105 19.2272 19.4917 19.0084C19.2729 18.7896 18.9761 18.6667 18.6667 18.6667ZM21.6067 10.5H19.8334V15.1667H23.3334V12.6584L21.6067 10.5Z" fill="white"/>
</svg>
