<svg width="28" height="28" viewBox="0 0 28 28" fill="none" xmlns="http://www.w3.org/2000/svg">
<path d="M14 2.33331C9.48504 2.33331 5.83337 5.98498 5.83337 10.5C5.83337 16.625 14 25.6666 14 25.6666C14 25.6666 22.1667 16.625 22.1667 10.5C22.1667 5.98498 18.515 2.33331 14 2.33331ZM14 13.4166C13.2265 13.4166 12.4846 13.1094 11.9376 12.5624C11.3907 12.0154 11.0834 11.2735 11.0834 10.5C11.0834 9.72643 11.3907 8.98457 11.9376 8.43758C12.4846 7.8906 13.2265 7.58331 14 7.58331C14.7736 7.58331 15.5155 7.8906 16.0624 8.43758C16.6094 8.98457 16.9167 9.72643 16.9167 10.5C16.9167 11.2735 16.6094 12.0154 16.0624 12.5624C15.5155 13.1094 14.7736 13.4166 14 13.4166Z" fill="white"/>
</svg>
