<svg width="28" height="28" viewBox="0 0 28 28" fill="none" xmlns="http://www.w3.org/2000/svg">
<path d="M6.99299 4.95833C6.99299 5.34511 6.83934 5.71604 6.56585 5.98953C6.29236 6.26302 5.92143 6.41667 5.53466 6.41667C5.14788 6.41667 4.77695 6.26302 4.50346 5.98953C4.22997 5.71604 4.07632 5.34511 4.07632 4.95833C4.07632 4.57156 4.22997 4.20063 4.50346 3.92714C4.77695 3.65365 5.14788 3.5 5.53466 3.5C5.92143 3.5 6.29236 3.65365 6.56585 3.92714C6.83934 4.20063 6.99299 4.57156 6.99299 4.95833ZM8.15966 4.95833C8.1605 5.52544 7.97684 6.07744 7.63641 6.531C9.17116 7.028 10.7106 7.64633 11.7256 8.74883C11.7393 8.7639 11.7559 8.77605 11.7744 8.78456C11.7929 8.79307 11.8129 8.79776 11.8333 8.79836C11.8537 8.79896 11.8739 8.79545 11.8929 8.78805C11.9119 8.78064 11.9292 8.76948 11.9437 8.75525C12.4249 8.28255 12.9627 7.87128 13.545 7.53083C13.5634 7.52012 13.5793 7.50548 13.5915 7.48797C13.6037 7.47045 13.6119 7.45047 13.6155 7.42944C13.6191 7.40842 13.618 7.38685 13.6124 7.36627C13.6068 7.34569 13.5967 7.3266 13.5829 7.31033C12.2121 5.75167 10.2171 5.082 8.13399 4.58908C8.1511 4.70964 8.15966 4.83272 8.15966 4.95833ZM6.25332 7.48417C6.02466 7.54833 5.78374 7.58333 5.53466 7.58333C5.01316 7.58333 4.52724 7.43167 4.11891 7.16917L3.54957 13.6803L3.50174 15.0453C3.48124 15.6301 3.68118 16.2012 4.06192 16.6454C4.44266 17.0897 4.97642 17.3747 5.55741 17.444L5.66299 17.4568C6.11641 17.5108 6.57569 17.4304 6.98392 17.2259C7.39215 17.0213 7.73138 16.7014 7.95957 16.3059L9.24057 14.0857C9.25482 14.061 9.26152 14.0327 9.25983 14.0042C9.25814 13.9758 9.24814 13.9484 9.23107 13.9256C9.214 13.9027 9.19061 13.8854 9.16378 13.8757C9.13696 13.866 9.10788 13.8644 9.08016 13.8711L8.04532 14.1219C8.0308 14.1254 8.0159 14.1269 8.00099 14.1266L6.44582 14.0251L5.43666 13.9049C5.41727 13.9026 5.39854 13.8965 5.38158 13.8868C5.36462 13.8772 5.34977 13.8642 5.33791 13.8487C5.32605 13.8332 5.31742 13.8155 5.31254 13.7966C5.30766 13.7777 5.30662 13.758 5.30949 13.7387L6.25332 7.48417Z" fill="white"/>
<path fill-rule="evenodd" clip-rule="evenodd" d="M18.1428 7.58325C14.4275 7.58325 11.3598 10.4853 11.1533 14.1948L10.9719 17.4673C10.9674 17.5465 10.9792 17.6257 11.0064 17.7003C11.0337 17.7748 11.0758 17.8429 11.1303 17.9006C11.1848 17.9582 11.2505 18.0042 11.3234 18.0356C11.3962 18.067 11.4747 18.0832 11.554 18.0833H24.1832C24.2235 18.0832 24.2634 18.0748 24.3003 18.0586C24.3372 18.0424 24.3703 18.0188 24.3976 17.9891C24.4249 17.9595 24.4458 17.9245 24.4589 17.8864C24.472 17.8483 24.477 17.8078 24.4737 17.7677L24.1295 13.6353C24.1113 13.4166 24.0114 13.2128 23.8499 13.0642C23.6884 12.9157 23.4769 12.8332 23.2575 12.8333H21.0256C21.0185 12.8333 21.0117 12.8308 21.0063 12.8262C21.001 12.8216 20.9974 12.8152 20.9965 12.8082L20.4108 8.5895C20.3721 8.31055 20.2337 8.05502 20.0214 7.87007C19.809 7.68513 19.5368 7.58325 19.2552 7.58325H18.1428ZM18.3936 10.042C18.3895 9.96855 18.3567 9.89965 18.3023 9.8502C18.2478 9.80075 18.176 9.77473 18.1025 9.77775C15.614 9.90375 13.6144 11.7529 13.461 14.2893L13.4405 14.627C13.4378 14.6725 13.4458 14.718 13.4638 14.7598C13.4819 14.8017 13.5095 14.8387 13.5444 14.868C13.5793 14.8973 13.6206 14.9179 13.665 14.9284C13.7094 14.9388 13.7556 14.9387 13.7999 14.928L17.1861 14.1102C17.4025 14.0373 17.6312 13.9993 17.8616 13.9993H18.5103C18.5303 13.9994 18.55 13.9953 18.5683 13.9874C18.5867 13.9795 18.6032 13.9679 18.6169 13.9534C18.6305 13.9388 18.6411 13.9216 18.6478 13.9028C18.6546 13.8841 18.6574 13.8641 18.6561 13.8442L18.3936 10.042ZM9.91663 21.8749C9.91663 21.1787 10.1932 20.511 10.6855 20.0188C11.1778 19.5265 11.8454 19.2499 12.5416 19.2499H21.875C22.2197 19.2499 22.561 19.3178 22.8795 19.4497C23.198 19.5817 23.4874 19.775 23.7311 20.0188C23.9749 20.2625 24.1682 20.5519 24.3001 20.8704C24.4321 21.1889 24.5 21.5302 24.5 21.8749C24.5 22.2196 24.4321 22.561 24.3001 22.8795C24.1682 23.1979 23.9749 23.4873 23.7311 23.7311C23.4874 23.9748 23.198 24.1682 22.8795 24.3001C22.561 24.432 22.2197 24.4999 21.875 24.4999H12.5416C11.8454 24.4999 11.1778 24.2234 10.6855 23.7311C10.1932 23.2388 9.91663 22.5711 9.91663 21.8749ZM14.5833 21.8749C14.5833 21.9898 14.5607 22.1036 14.5167 22.2098C14.4727 22.3159 14.4083 22.4124 14.327 22.4936C14.2458 22.5749 14.1493 22.6393 14.0431 22.6833C13.937 22.7273 13.8232 22.7499 13.7083 22.7499C13.5934 22.7499 13.4796 22.7273 13.3734 22.6833C13.2673 22.6393 13.1708 22.5749 13.0896 22.4936C13.0083 22.4124 12.9439 22.3159 12.8999 22.2098C12.8559 22.1036 12.8333 21.9898 12.8333 21.8749C12.8333 21.6429 12.9255 21.4203 13.0896 21.2562C13.2537 21.0921 13.4762 20.9999 13.7083 20.9999C13.9404 20.9999 14.1629 21.0921 14.327 21.2562C14.4911 21.4203 14.5833 21.6429 14.5833 21.8749ZM17.2083 22.7499C17.4404 22.7499 17.6629 22.6577 17.827 22.4936C17.9911 22.3295 18.0833 22.107 18.0833 21.8749C18.0833 21.6429 17.9911 21.4203 17.827 21.2562C17.6629 21.0921 17.4404 20.9999 17.2083 20.9999C16.9762 20.9999 16.7537 21.0921 16.5896 21.2562C16.4255 21.4203 16.3333 21.6429 16.3333 21.8749C16.3333 22.107 16.4255 22.3295 16.5896 22.4936C16.7537 22.6577 16.9762 22.7499 17.2083 22.7499ZM21.5833 21.8749C21.5833 22.107 21.4911 22.3295 21.327 22.4936C21.1629 22.6577 20.9404 22.7499 20.7083 22.7499C20.4762 22.7499 20.2537 22.6577 20.0896 22.4936C19.9255 22.3295 19.8333 22.107 19.8333 21.8749C19.8333 21.6429 19.9255 21.4203 20.0896 21.2562C20.2537 21.0921 20.4762 20.9999 20.7083 20.9999C20.9404 20.9999 21.1629 21.0921 21.327 21.2562C21.4911 21.4203 21.5833 21.6429 21.5833 21.8749Z" fill="white"/>
</svg>
