<svg width="28" height="28" viewBox="0 0 28 28" fill="none" xmlns="http://www.w3.org/2000/svg">
<path d="M8.16669 21C6.22224 21 4.56946 20.3194 3.20835 18.9583C1.84724 17.5972 1.16669 15.9444 1.16669 14C1.16669 12.0556 1.84724 10.4028 3.20835 9.04167C4.56946 7.68056 6.22224 7 8.16669 7C9.74169 7 11.1176 7.44256 12.2944 8.32767C13.4711 9.21278 14.2925 10.3258 14.7584 11.6667H24.5C25.1417 11.6667 25.6912 11.8953 26.1485 12.3527C26.6059 12.81 26.8341 13.3591 26.8334 14C26.8334 14.7 26.5903 15.2639 26.1042 15.6917C25.6181 16.1194 25.0834 16.3333 24.5 16.3333V18.6667C24.5 19.3083 24.2717 19.8578 23.8152 20.3152C23.3586 20.7725 22.8091 21.0008 22.1667 21C21.5242 20.9992 20.9751 20.7709 20.5194 20.3152C20.0636 19.8594 19.8349 19.3099 19.8334 18.6667V16.3333H14.7584C14.2917 17.675 13.47 18.7884 12.2932 19.6735C11.1164 20.5586 9.74091 21.0008 8.16669 21ZM8.16669 16.3333C8.80835 16.3333 9.35785 16.1051 9.81519 15.6485C10.2725 15.1919 10.5008 14.6424 10.5 14C10.4992 13.3576 10.271 12.8084 9.81519 12.3527C9.35941 11.8969 8.80991 11.6682 8.16669 11.6667C7.52346 11.6651 6.97435 11.8938 6.51935 12.3527C6.06435 12.8116 5.83569 13.3607 5.83335 14C5.83102 14.6393 6.05969 15.1888 6.51935 15.6485C6.97902 16.1082 7.52813 16.3364 8.16669 16.3333Z" fill="white"/>
</svg>
