<svg width="50" height="50" viewBox="0 0 50 50" fill="none" xmlns="http://www.w3.org/2000/svg">
<path fill-rule="evenodd" clip-rule="evenodd" d="M41.9395 6.58333C40.7675 5.41164 39.178 4.75342 37.5208 4.75342C35.8635 4.75342 34.2741 5.41164 33.102 6.58333L31.6291 8.05833L41.9416 18.3708L43.4124 16.8979C43.9929 16.3175 44.4534 15.6285 44.7675 14.8701C45.0817 14.1118 45.2434 13.299 45.2434 12.4781C45.2434 11.6573 45.0817 10.8445 44.7675 10.0861C44.4534 9.32776 43.9929 8.63871 43.4124 8.05833L41.9395 6.58333ZM38.9937 21.3167L28.6812 11.0042L9.74368 29.9438C9.32927 30.3582 9.03978 30.8809 8.90827 31.4521L6.76451 40.7333C6.68464 41.0779 6.6938 41.4371 6.79114 41.7772C6.88848 42.1172 7.07079 42.4269 7.32089 42.677C7.57099 42.9271 7.88065 43.1094 8.22069 43.2067C8.56073 43.3041 8.91995 43.3132 9.26452 43.2333L18.5478 41.0917C19.1183 40.9598 19.6402 40.6703 20.0541 40.2563L38.9937 21.3167Z" fill="white"/>
</svg>
