<svg width="28" height="28" viewBox="0 0 28 28" fill="none" xmlns="http://www.w3.org/2000/svg">
<g clip-path="url(#clip0_1034_13)">
<path d="M28 12.0909V15.9091C28 16.4394 27.8144 16.8902 27.4432 17.2614C27.072 17.6326 26.6212 17.8182 26.0909 17.8182H17.8182V26.0909C17.8182 26.6212 17.6326 27.072 17.2614 27.4432C16.8902 27.8144 16.4394 28 15.9091 28H12.0909C11.5606 28 11.1098 27.8144 10.7386 27.4432C10.3674 27.072 10.1818 26.6212 10.1818 26.0909V17.8182H1.90909C1.37879 17.8182 0.92803 17.6326 0.556818 17.2614C0.185606 16.8902 0 16.4394 0 15.9091V12.0909C0 11.5606 0.185606 11.1098 0.556818 10.7386C0.92803 10.3674 1.37879 10.1818 1.90909 10.1818H10.1818V1.90909C10.1818 1.37879 10.3674 0.92803 10.7386 0.556818C11.1098 0.185606 11.5606 0 12.0909 0H15.9091C16.4394 0 16.8902 0.185606 17.2614 0.556818C17.6326 0.92803 17.8182 1.37879 17.8182 1.90909V10.1818H26.0909C26.6212 10.1818 27.072 10.3674 27.4432 10.7386C27.8144 11.1098 28 11.5606 28 12.0909Z" fill="white"/>
</g>
<defs>
<clipPath id="clip0_1034_13">
<rect width="28" height="28" fill="white"/>
</clipPath>
</defs>
</svg>
