<svg width="28" height="28" viewBox="0 0 28 28" fill="none" xmlns="http://www.w3.org/2000/svg">
<path d="M14 21C15.9444 21 17.5972 20.3194 18.9583 18.9583C20.3194 17.5972 21 15.9444 21 14C21 12.0556 20.3194 10.4028 18.9583 9.04167C17.5972 7.68056 15.9444 7 14 7C12.0556 7 10.4028 7.68056 9.04167 9.04167C7.68056 10.4028 7 12.0556 7 14C7 15.9444 7.68056 17.5972 9.04167 18.9583C10.4028 20.3194 12.0556 21 14 21ZM5.83333 24.5C5.19167 24.5 4.64256 24.2717 4.186 23.8152C3.72944 23.3586 3.50078 22.8091 3.5 22.1667V5.83333C3.5 5.19167 3.72867 4.64256 4.186 4.186C4.64333 3.72944 5.19244 3.50078 5.83333 3.5H22.1667C22.8083 3.5 23.3578 3.72867 23.8152 4.186C24.2725 4.64333 24.5008 5.19244 24.5 5.83333V22.1667C24.5 22.8083 24.2717 23.3578 23.8152 23.8152C23.3586 24.2725 22.8091 24.5008 22.1667 24.5H5.83333Z" fill="white"/>
</svg>
