<svg width="28" height="28" viewBox="0 0 28 28" fill="none" xmlns="http://www.w3.org/2000/svg">
<path d="M14 14.875C18.599 14.875 23.3182 17.8652 23.6238 23.8723C23.6356 24.1039 23.555 24.3307 23.3997 24.5028C23.2443 24.675 23.0271 24.7784 22.7955 24.7905C20.3689 24.9142 9.13035 24.99 5.20568 24.7905C4.97393 24.7787 4.75635 24.6754 4.60079 24.5032C4.44523 24.331 4.36444 24.1041 4.37618 23.8723C4.68185 17.8663 9.40102 14.875 14 14.875ZM14 4.375C12.8397 4.375 11.7269 4.83594 10.9064 5.65641C10.086 6.47688 9.62502 7.58968 9.62502 8.75C9.62502 9.91032 10.086 11.0231 10.9064 11.8436C11.7269 12.6641 12.8397 13.125 14 13.125C15.1603 13.125 16.2731 12.6641 17.0936 11.8436C17.9141 11.0231 18.375 9.91032 18.375 8.75C18.375 7.58968 17.9141 6.47688 17.0936 5.65641C16.2731 4.83594 15.1603 4.375 14 4.375Z" fill="white"/>
</svg>
